<svg id="图层_1" data-name="图层 1" xmlns="http://www.w3.org/2000/svg" xmlns:xlink="http://www.w3.org/1999/xlink" viewBox="0 0 192.91 222.66"><defs><style>.cls-1{fill:none;}.cls-2{clip-path:url(#clip-path);}.cls-3{fill:#fff;}</style><clipPath id="clip-path" transform="translate(-159.58 -130.58)"><rect class="cls-1" width="512" height="512"/></clipPath></defs><g class="cls-2"><path class="cls-3" d="M171.82,290.57,244,332.35V248.8L171.82,207ZM244,346.28,171.82,304.5l-12-7V186.13L256,241.83V353.24Z" transform="translate(-159.58 -130.58)"/><polygon class="cls-3" points="60.37 118.21 72.4 125.17 72.4 139.1 60.37 132.14 60.37 118.21"/><polygon class="cls-3" points="72.4 153.03 84.43 159.99 84.43 173.92 72.4 166.95 72.4 153.03"/><polygon class="cls-3" points="24.28 97.32 36.31 104.29 36.31 118.21 24.28 111.25 24.28 97.32"/><polygon class="cls-3" points="12.24 118.21 24.28 125.17 24.28 139.1 12.24 132.14 12.24 118.21"/><polygon class="cls-3" points="24.28 139.1 72.4 166.95 72.4 180.88 24.28 153.03 24.28 139.1"/><path class="cls-3" d="M340.2,290.57,268,332.35V248.8L340.2,207ZM268,346.28,340.2,304.5l12-7V186.13L256,241.83V353.24Z" transform="translate(-159.58 -130.58)"/><path class="cls-3" d="M256.05,144.5l72.32,41.71L256,228l-72.32-41.71Zm0-13.92-96.48,55.71L256,241.9l84.42-48.74,12.06-7Z" transform="translate(-159.58 -130.58)"/></g></svg>